<?xml version="1.0" encoding="UTF-8" standalone="no" ?>
<!DOCTYPE svg PUBLIC "-//W3C//DTD SVG 1.1//EN" "http://www.w3.org/Graphics/SVG/1.1/DTD/svg11.dtd">
<svg xmlns="http://www.w3.org/2000/svg" xmlns:xlink="http://www.w3.org/1999/xlink" version="1.1" width="1080" height="1080" viewBox="0 0 1080 1080" xml:space="preserve">
<desc>Created with Fabric.js 5.2.4</desc>
<defs>
</defs>
<g transform="matrix(1 0 0 1 540 540)" id="ab2b0d2d-6283-4d83-b7e0-76f6a2df2211"  >
</g>
<g transform="matrix(1 0 0 1 540 540)" id="8481e087-3b7f-4e65-8828-9c939b6e8db2"  >
<rect style="stroke: none; stroke-width: 1; stroke-dasharray: none; stroke-linecap: butt; stroke-dashoffset: 0; stroke-linejoin: miter; stroke-miterlimit: 4; fill: rgb(255,255,255); fill-rule: nonzero; opacity: 1; visibility: hidden;" vector-effect="non-scaling-stroke"  x="-540" y="-540" rx="0" ry="0" width="1080" height="1080" />
</g>
<g transform="matrix(1 0 0 1 539.99 539.99)"  >
<path style="stroke: none; stroke-width: 1; stroke-dasharray: none; stroke-linecap: butt; stroke-dashoffset: 0; stroke-linejoin: miter; stroke-miterlimit: 4; fill: rgb(0,0,0); fill-rule: nonzero; opacity: 1;" vector-effect="non-scaling-stroke"  transform=" translate(-0.44, -426.31)" d="M 0 0 C 1.2811972 0.00182281 2.56239441 0.00364563 3.88241577 0.00552368 C 22.26081417 0.04956837 40.25785123 0.42187155 58.4375 3.3125 C 60.2006958 3.57788574 60.2006958 3.57788574 61.99951172 3.84863281 C 159.66758371 18.71256071 256.08649257 66.98273361 320.4375 143.3125 C 321.28054688 144.26640625 322.12359375 145.2203125 322.9921875 146.203125 C 341.08720028 166.74914478 356.89912622 189.52597728 370.4375 213.3125 C 371.10531494 214.47990723 371.10531494 214.47990723 371.78662109 215.67089844 C 396.85124369 259.76496903 413.20623907 307.56209394 421.6875 357.5 C 421.8125592 358.22515808 421.93761841 358.95031616 422.06646729 359.69744873 C 425.82991641 381.72515453 426.81594577 403.54756859 426.75 425.875 C 426.74726578 427.79679581 426.74726578 427.79679581 426.74447632 429.75741577 C 426.70043163 448.13581417 426.32812845 466.13285123 423.4375 484.3125 C 423.26057617 485.48796387 423.08365234 486.66342773 422.90136719 487.87451172 C 408.03743929 585.54258371 359.76726639 681.96149257 283.4375 746.3125 C 282.48359375 747.15554688 281.5296875 747.99859375 280.546875 748.8671875 C 260.00085522 766.96220028 237.22402272 782.77412622 213.4375 796.3125 C 212.65922852 796.75770996 211.88095703 797.20291992 211.07910156 797.66162109 C 166.98503097 822.72624369 119.18790606 839.08123907 69.25 847.5625 C 68.52484192 847.6875592 67.79968384 847.81261841 67.05255127 847.94146729 C 45.02484547 851.70491641 23.20243141 852.69094577 0.875 852.625 C -0.4061972 852.62317719 -1.68739441 852.62135437 -3.00741577 852.61947632 C -21.38581417 852.57543163 -39.38285123 852.20312845 -57.5625 849.3125 C -58.73796387 849.13557617 -59.91342773 848.95865234 -61.12451172 848.77636719 C -158.79258371 833.91243929 -255.21149257 785.64226639 -319.5625 709.3125 C -320.40554688 708.35859375 -321.24859375 707.4046875 -322.1171875 706.421875 C -340.21220028 685.87585522 -356.02412622 663.09902272 -369.5625 639.3125 C -370.00770996 638.53422852 -370.45291992 637.75595703 -370.91162109 636.95410156 C -395.97624369 592.86003097 -412.33123907 545.06290606 -420.8125 495.125 C -421.00008881 494.03726288 -421.00008881 494.03726288 -421.19146729 492.92755127 C -424.95491641 470.89984547 -425.94094577 449.07743141 -425.875 426.75 C -425.87317719 425.4688028 -425.87135437 424.18760559 -425.86947632 422.86758423 C -425.82543163 404.48918583 -425.45312845 386.49214877 -422.5625 368.3125 C -422.29711426 366.5493042 -422.29711426 366.5493042 -422.02636719 364.75048828 C -407.16243929 267.08241629 -358.89226639 170.66350743 -282.5625 106.3125 C -281.60859375 105.46945313 -280.6546875 104.62640625 -279.671875 103.7578125 C -259.12585522 85.66279972 -236.34902272 69.85087378 -212.5625 56.3125 C -211.78422852 55.86729004 -211.00595703 55.42208008 -210.20410156 54.96337891 C -166.11003097 29.89875631 -118.31290606 13.54376093 -68.375 5.0625 C -67.28726288 4.87491119 -67.28726288 4.87491119 -66.17755127 4.68353271 C -44.14984547 0.92008359 -22.32743141 -0.06594577 0 0 Z" stroke-linecap="round" />
</g>
<g transform="matrix(1 0 0 1 390.72 548)"  >
<path style="stroke: none; stroke-width: 1; stroke-dasharray: none; stroke-linecap: butt; stroke-dashoffset: 0; stroke-linejoin: miter; stroke-miterlimit: 4; fill: rgb(255,255,255); fill-rule: nonzero; opacity: 1;" vector-effect="non-scaling-stroke"  transform=" translate(-16.72, -163)" d="M 0 0 C 12.54 0 25.08 0 38 0 C 38 12.21 38 24.42 38 37 C 41.3 37 44.6 37 48 37 C 50.80908203 37.42382812 50.80908203 37.42382812 53.0078125 38.03125 C 53.84119141 38.26038086 54.67457031 38.48951172 55.53320312 38.72558594 C 56.38849609 38.98114258 57.24378906 39.23669922 58.125 39.5 C 59.03443359 39.76844727 59.94386719 40.03689453 60.88085938 40.31347656 C 76.64092248 45.17421182 90.48560105 53.04695729 102 65 C 100.41559153 69.944118 97.5082997 73.57569415 94.375 77.625 C 89.86860165 83.45784477 89.86860165 83.45784477 85.640625 89.4921875 C 84.64289063 90.98105469 84.64289063 90.98105469 83.625 92.5 C 83.06039062 93.3765625 82.49578125 94.253125 81.9140625 95.15625 C 80 97 80 97 77.0859375 97.53515625 C 73.25098258 96.87010711 71.82607675 95.58253121 69 92.9375 C 59.56522059 84.79743896 50.11955178 81.3053323 38 78 C 38.33 98.79 38.66 119.58 39 141 C 43.29 141.99 47.58 142.98 52 144 C 74.10885746 149.80947694 92.51898286 159.23973858 104.49609375 179.53515625 C 110.11981058 190.06502366 111.53718839 200.29167675 111.4375 212.125 C 111.42847656 213.40455566 111.41945313 214.68411133 111.41015625 216.00244141 C 111.03909615 236.35663416 105.47081004 253.76163917 90.83984375 268.34765625 C 76.69326737 281.56020833 57.39848774 289 38 289 C 38 301.21 38 313.42 38 326 C 25.46 326 12.92 326 0 326 C 0 313.79 0 301.58 0 289 C -3.3 288.67 -6.6 288.34 -10 288 C -38.43564612 282.11843901 -60.55610454 269.36620564 -78 246 C -76.30702376 242.10044798 -73.75307038 238.92547426 -71.125 235.625 C -70.64466309 235.02155762 -70.16432617 234.41811523 -69.66943359 233.79638672 C -68.64715382 232.51944415 -67.62184388 231.24492243 -66.59375 229.97265625 C -65.52154878 228.64554445 -64.45390919 227.31473556 -63.390625 225.98046875 C -61.81817133 224.01490166 -60.22510385 222.0680907 -58.625 220.125 C -57.89434326 219.20581787 -57.89434326 219.20581787 -57.14892578 218.26806641 C -55.10080026 215.82339341 -53.57239211 214.17803798 -50.48828125 213.21875 C -46.6658051 214.4188995 -44.89394074 217.30017849 -42.5625 220.375 C -31.47408332 234.06451021 -16.85649563 242.18385839 0 247 C 0 223.57 0 200.14 0 176 C -3.3 175.67 -6.6 175.34 -10 175 C -28.40257243 170.46744252 -48.83474841 160.7446571 -60 145 C -67.31507682 132.7100822 -70.53539266 120.8462325 -70.375 106.5 C -70.38660156 105.46230469 -70.39820313 104.42460937 -70.41015625 103.35546875 C -70.34864594 86.89120952 -64.71612278 71.97855844 -53.16796875 60.1015625 C -52.45253906 59.40804687 -51.73710937 58.71453125 -51 58 C -50.45988281 57.45085937 -49.91976563 56.90171875 -49.36328125 56.3359375 C -36.56012131 44.27452234 -17.3226333 37 0 37 C 0 24.79 0 12.58 0 0 Z" stroke-linecap="round" />
</g>
<g transform="matrix(1 0 0 1 696.5 548)"  >
<path style="stroke: none; stroke-width: 1; stroke-dasharray: none; stroke-linecap: butt; stroke-dashoffset: 0; stroke-linejoin: miter; stroke-miterlimit: 4; fill: rgb(255,255,255); fill-rule: nonzero; opacity: 1;" vector-effect="non-scaling-stroke"  transform=" translate(-83.5, -124)" d="M 0 0 C 54.45 0 108.9 0 165 0 C 165 13.53 165 27.06 165 41 C 126.72 41 88.44 41 49 41 C 49 60.14 49 79.28 49 99 C 82.33 99 115.66 99 150 99 C 150 112.2 150 125.4 150 139 C 116.67 139 83.34 139 49 139 C 49 161.44 49 183.88 49 207 C 87.94 207 126.88 207 167 207 C 167 220.53 167 234.06 167 248 C 111.89 248 56.78 248 0 248 C 0 166.16 0 84.32 0 0 Z" stroke-linecap="round" />
</g>
<g transform="matrix(1 0 0 1 425.29 602)"  >
<path style="stroke: none; stroke-width: 1; stroke-dasharray: none; stroke-linecap: butt; stroke-dashoffset: 0; stroke-linejoin: miter; stroke-miterlimit: 4; fill: rgb(0,0,0); fill-rule: nonzero; opacity: 1;" vector-effect="non-scaling-stroke"  transform=" translate(-13.3, -31)" d="M 0 0 C 10.70499798 4.28199919 19.95879611 8.68124521 24.9375 19.625 C 27.59324866 28.057002 27.07552625 37.78751384 23.3125 45.7578125 C 18.67653682 53.67758294 12.52781457 58.55230774 4 62 C 2.68 62 1.36 62 0 62 C 0 41.54 0 21.08 0 0 Z" stroke-linecap="round" />
</g>
<g transform="matrix(1 0 0 1 361.23 490)"  >
<path style="stroke: none; stroke-width: 1; stroke-dasharray: none; stroke-linecap: butt; stroke-dashoffset: 0; stroke-linejoin: miter; stroke-miterlimit: 4; fill: rgb(0,0,0); fill-rule: nonzero; opacity: 1;" vector-effect="non-scaling-stroke"  transform=" translate(12.76, -27)" d="M 0 0 C 0 17.82 0 35.64 0 54 C -9.98159741 50.67280086 -17.81878365 47.46987022 -23 38 C -26.08359403 31.68597413 -26.14831924 23.92992749 -24.1953125 17.24609375 C -20.67263801 9.28970826 -14.65066179 4.25502845 -6.625 1.0625 C -3 0 -3 0 0 0 Z" stroke-linecap="round" />
</g>
</svg>